<svg viewBox="0 0 100 100" xmlns="http://www.w3.org/2000/svg"><symbol viewBox="0 0 64 64" id="icon-magpie"><title>magpie</title> <path d="M0,64l20.1-27.9c0.8,0.1,1.7,0.2,2.6,0.3c1.3,0.1,3,0.2,4.9,0.2c3.4,0,7.6-0.3,11.7-1.5c4.5-1.3,8-3.4,10.6-6.2
	c3-3.3,4.7-7.7,4.9-13c0.5-1.7,2.2-2.4,2.9-4.6C64,7.8,62.9,7.2,64,6.5c0.2-0.6-5.6-2.5-5.6-2.6c-0.4-1.8-7.8-7.7-14.9-0.3
	c-6.8,1.5-12.9,3.1-17.9,10l-6.3,11L0,38.2l13.9-4L0,64z M35.5,14.8c1.4-1.9,4.4-1.6,6.1-1c1.8,0.7,3.1,2.1,2.5,3.4
	c-0.4,0.9-2.7,2.3-4,3c-4.8,2.7-12.2,5.1-12.2,5.1S35.3,15.2,35.5,14.8z M46.7,30.9c-2.1,1.5-4.6,2.7-7.6,3.6
	c-6.5,1.9-13.6,1.7-18.6,1l1.6-2.2l0.5-0.7l0.9-1.2l16-4.6c3-0.9,5.6-2.1,7.7-3.7c0.1,0.5,0.1,0.9,0.2,1.4
	C47.5,26.8,47.3,29.1,46.7,30.9z"/> </symbol></svg>